<svg xmlns="http://www.w3.org/2000/svg" width="48" height="48" viewBox="0 0 48 48">
  <path id="logo-whatsapp" d="M73.007,38.974a23.855,23.855,0,0,0-37.616,28.7L32,80l12.67-3.307a23.96,23.96,0,0,0,11.421,2.893h.01A23.878,23.878,0,0,0,80,55.8a23.591,23.591,0,0,0-6.993-16.825ZM56.1,75.57h-.009a19.9,19.9,0,0,1-10.11-2.756l-.725-.429-7.518,1.963,2.007-7.3-.472-.75A19.882,19.882,0,1,1,56.1,75.57ZM67,60.764c-.6-.3-3.536-1.736-4.08-1.934s-.946-.3-1.344.3-1.543,1.929-1.891,2.33-.7.446-1.293.148a16.335,16.335,0,0,1-4.8-2.95,17.921,17.921,0,0,1-3.321-4.116c-.348-.595-.037-.917.261-1.213.269-.267.6-.694.9-1.041a4.021,4.021,0,0,0,.6-.992,1.091,1.091,0,0,0-.049-1.04c-.149-.3-1.344-3.223-1.841-4.413-.485-1.159-.977-1-1.344-1.02-.348-.017-.75-.021-1.145-.021a2.2,2.2,0,0,0-1.592.744,6.66,6.66,0,0,0-2.09,4.959c0,2.923,2.143,5.751,2.439,6.148s4.211,6.4,10.2,8.974A34.624,34.624,0,0,0,60,66.874a8.221,8.221,0,0,0,3.761.236c1.147-.17,3.536-1.438,4.032-2.826a4.961,4.961,0,0,0,.348-2.825C67.992,61.211,67.594,61.061,67,60.764Z" transform="translate(-32 -31.999)" fill="#fff" fill-rule="evenodd"/>
</svg>
