<svg id="logo-instagram" xmlns="http://www.w3.org/2000/svg" width="48" height="48" viewBox="0 0 48 48">
  <path id="Trazado_1" data-name="Trazado 1" d="M66,36A10.031,10.031,0,0,1,76,46V66A10.031,10.031,0,0,1,66,76H46A10.031,10.031,0,0,1,36,66V46A10.031,10.031,0,0,1,46,36H66m0-4H46A14.041,14.041,0,0,0,32,46V66A14.041,14.041,0,0,0,46,80H66A14.041,14.041,0,0,0,80,66V46A14.041,14.041,0,0,0,66,32Z" transform="translate(-32 -32)" fill="#fff"/>
  <path id="Trazado_2" data-name="Trazado 2" d="M169,112.67a2.994,2.994,0,1,1,2.123-.877,3,3,0,0,1-2.123.877Zm-13,2a8,8,0,1,1-8,8,8,8,0,0,1,8-8m0-4a12,12,0,1,0,12,12A12,12,0,0,0,156,110.67Z" transform="translate(-132 -98.67)" fill="#fff"/>
</svg>
